inDegrees=no
num_controls=7
num_derivatives=13
num_iterations=37
num_multipliers=7
num_parameters=0
num_slacks=7
num_states=26
objective=0.432775
objective_accelerations=0.055942
objective_balance=0.007303
objective_effort=0.034141
objective_height=0.334315
objective_ligament=0.001073
solver_duration=602.024517
status=Solve_Succeeded
success=true
DataType=double
version=3
OpenSimVersion=4.5
endheader
time	/jointset/ground_pelvis/pelvis_tilt/value	/jointset/ground_pelvis/pelvis_tx/value	/jointset/ground_pelvis/pelvis_ty/value	/jointset/hip_l/hip_flexion_l/value	/jointset/hip_l/hip_adduction_l/value	/jointset/hip_l/hip_rotation_l/value	/jointset/back/lumbar_extension/value	/jointset/patellofemoral_l/patellar_flexion_l/value	/jointset/knee_l/knee_flexion_l/value	/jointset/knee_l/knee_adduction_l/value	/jointset/knee_l/knee_rotation_l/value	/jointset/ankle_l/ankle_angle_l/value	/jointset/subtalar_l/subtalar_angle_l/value	/jointset/ground_pelvis/pelvis_tilt/speed	/jointset/ground_pelvis/pelvis_tx/speed	/jointset/ground_pelvis/pelvis_ty/speed	/jointset/hip_l/hip_flexion_l/speed	/jointset/hip_l/hip_adduction_l/speed	/jointset/hip_l/hip_rotation_l/speed	/jointset/back/lumbar_extension/speed	/jointset/patellofemoral_l/patellar_flexion_l/speed	/jointset/knee_l/knee_flexion_l/speed	/jointset/knee_l/knee_adduction_l/speed	/jointset/knee_l/knee_rotation_l/speed	/jointset/ankle_l/ankle_angle_l/speed	/jointset/subtalar_l/subtalar_angle_l/speed	/forceset/tau_hip_flexion_l	/forceset/tau_hip_adduction_l	/forceset/tau_hip_rotation_l	/forceset/tau_knee_flexion_l	/forceset/tau_ankle_angle_l	/forceset/tau_subtalar_angle_l	/forceset/tau_lumbar_extension	lambda_cid13_p0	lambda_cid13_p1	lambda_cid13_p2	lambda_cid13_p3	lambda_cid13_p4	lambda_cid13_p5	lambda_cid14_p0	/jointset/ground_pelvis/pelvis_tilt/accel	/jointset/ground_pelvis/pelvis_tx/accel	/jointset/ground_pelvis/pelvis_ty/accel	/jointset/hip_l/hip_flexion_l/accel	/jointset/hip_l/hip_adduction_l/accel	/jointset/hip_l/hip_rotation_l/accel	/jointset/back/lumbar_extension/accel	/jointset/patellofemoral_l/patellar_flexion_l/accel	/jointset/knee_l/knee_flexion_l/accel	/jointset/knee_l/knee_adduction_l/accel	/jointset/knee_l/knee_rotation_l/accel	/jointset/ankle_l/ankle_angle_l/accel	/jointset/subtalar_l/subtalar_angle_l/accel	gamma_cid13_p0	gamma_cid13_p1	gamma_cid13_p2	gamma_cid13_p3	gamma_cid13_p4	gamma_cid13_p5	gamma_cid14_p0
1.5	-0.3268103246006304	-0.0355726859640401	0.7538514390999781	1.211467831129665	-0.2781003986441676	0.03577533401785869	-0.34906594274846	0.8799396650668462	0.8799396650670265	-0.1294080820546379	0.1332807877358577	0.1890032010015689	0.01705873309180876	0.3965115223789973	0.137683613544685	0.5541800336678417	-2.152697444693271	-0.03955111424890874	-0.5340987821755461	0.5436061000193697	-2.260839560649549	-2.260839560649259	-0.1112844176213913	-0.1313462313752786	-0.6120073435838026	-0.1714507478616208	-0.1997410742006899	0.06806738938052059	-0.02152853157513273	-0.2686254740891054	0.1059105497923713	-0.00527230042659247	0.1995443373101594	-5.369951496225585	4.852896313053169	-3.029842043083567	-1.443468742002955	-609.0684521997074	-17.1830392740487	-15.98119792420749	0.7238385451228674	0.641162988792757	-0.4308934557750707	-1.683087558266551	0.3748598943504113	-0.5210691621162201	1.983279788392565	-1.596761382434715	-1.596761382434734	0.1358350001753003	-0.1194781933834995	-0.7074200938143674	0.3987782272502221	4.247066534901002e-07	-1.622095550311188e-06	-5.329217704345393e-06	-7.926128404090578e-07	7.834141354783995e-07	-5.754120575180376e-07	4.663536944802571e-07
1.51	-0.3228092493128151	-0.03416379719073648	0.7593705306159442	1.189858812647382	-0.278478394509818	0.03041531506501676	-0.3435315257895483	0.8572537073867713	0.8572537073869658	-0.1305211628148256	0.1319584929041099	0.1828483714260713	0.01536265659848825	0.4036465124788189	0.1440908311863586	0.5495200716977525	-2.168827549835254	-0.03603600172528214	-0.537836157550785	0.5632308183497942	-2.27603001270447	-2.276030012704469	-0.111338120687404	-0.1331060299707408	-0.6188407516990611	-0.1677405824413752	-0.193753201219412	0.06836092611580952	-0.02183935122524841	-0.2649194020819123	0.107650261138182	-0.005319846376225001	0.1945150554020907	-4.530561579968431	4.557546414906292	-2.789686907283583	-1.875157583191556	-604.3198268195619	-17.03631071824264	-17.38253644862653	0.6997806304552043	0.6398428225387204	-0.5011042334071759	-1.536136953406892	0.3426298714939356	-0.2892283383986366	1.945096844156766	-1.431995097606828	-1.431995097650193	-0.07735135469015471	-0.2021420579334695	-0.6537663491610386	0.3616282746752366	4.642429284457391e-07	-1.506819070085708e-06	-5.5289335219022e-06	-8.035667595137026e-07	8.372868556645855e-07	-3.905792083600138e-07	4.964045834364372e-07
1.52	-0.318738533846529	-0.03269096790688622	0.7648395111790531	1.168096860121334	-0.2788206806621863	0.0250200910357628	-0.3378022558495946	0.8344254835900889	0.834425483590261	-0.1316350562846002	0.1306190178133181	0.176628714733659	0.01370458027442342	0.4104395581008092	0.1504717156540129	0.544157843096764	-2.183284253426909	-0.03240917159666692	-0.5411397974528358	0.5825766962321647	-2.289292783982846	-2.289292783983134	-0.11144695954145	-0.1347822831784318	-0.6249727669654971	-0.1638507140106067	-0.1877653282381552	0.06865446285105926	-0.0221501708756289	-0.2612133300747196	0.1093899724839914	-0.005367392325906449	0.1894857734939999	-3.697392987974171	4.260766313325302	-2.546421131758818	-2.334371407026967	-599.671397238443	-17.00785229137949	-18.78007907261816	0.655449649555076	0.6358963539896044	-0.5713467819547986	-1.348407248200191	0.3972034153480946	-0.4343220674786238	1.927511698781534	-1.211225227126228	-1.211225227126213	0.1248078425683498	-0.1027691158293063	-0.5671415240491309	0.4347188293548788	5.06820356771431e-07	-1.388081335940172e-06	-5.730661850536447e-06	-8.174001458650144e-07	9.010593870343755e-07	-1.935037237961506e-07	5.265675024485639e-07
1.53	-0.3146015761308126	-0.03115455618382425	0.7702514032951255	1.146198732760592	-0.2791264362581955	0.01959397894923464	-0.3318813480035498	0.8114742986108121	0.8114742986111079	-0.132750588256486	0.1292632486450553	0.1703511866780636	0.01208594062334296	0.4168874981366744	0.1567966737584692	0.5381046884329458	-2.196033679199556	-0.02872944774621008	-0.5440268754897188	0.6015253167425045	-2.300593682847059	-2.30059368284734	-0.1116458889551398	-0.1363537899235641	-0.6304068905430622	-0.1598526614574751	-0.1814770601935372	0.06871549594286211	-0.02227088106573065	-0.257676554687597	0.1112292685241247	-0.005609238974128438	0.1841563446474056	-2.838826847041779	4.054242601638521	-2.329335741969853	-2.699229503602906	-594.9200150324843	-16.89186307678365	-20.16981023396352	0.6298054617535567	0.6285335939378167	-0.6394805363088852	-1.19203872424872	0.3562693847067266	-0.2069378205056724	1.866603792572206	-1.037057477141248	-1.037057477139994	-0.09064765227776043	-0.1805289668341533	-0.5127870470696209	0.3869376418263572	5.526290105528043e-07	-1.265666019504577e-06	-5.934528472190475e-06	-8.342929661659094e-07	9.753504677867441e-07	1.657956088641691e-08	5.568494533951337e-07
1.54	-0.3104020711586579	-0.02955534726867188	0.775599327719017	1.12418234544553	-0.2793948121127325	0.01414078865260617	-0.3257733406393412	0.788420597590739	0.7884205975911315	-0.1338677903862225	0.1278925269067202	0.1640230695321928	0.01050819933250104	0.4229490094190425	0.1630311540720941	0.5313643046608874	-2.206936244270247	-0.02493322330328347	-0.5465554394750773	0.6199965998696968	-2.309795992154178	-2.309795992154451	-0.1117809911264404	-0.1377727971878461	-0.6350905850189995	-0.1556710419629954	-0.1751887921488834	0.06877652903468219	-0.022391591256475	-0.2541397793004064	0.1130685645642834	-0.005851085622324257	0.1788269158008185	-1.984633982715928	3.845258186954263	-2.108167794658534	-3.10225313910945	-590.2502002114796	-16.90562701144531	-21.54857326163943	0.5781638988538931	0.6178007958242244	-0.7087926036026808	-0.9790351078088491	0.4205035338419852	-0.3626192571737316	1.832044222151657	-0.7915073157079133	-0.7915073157079127	0.1375732910458406	-0.0722692196592367	-0.4170557037225593	0.4714322176246061	5.967359573993356e-07	-1.117764005487714e-06	-6.11703256600483e-06	-8.462480542762272e-07	1.050046326919474e-06	2.364254703874801e-07	5.865172204013458e-07
1.55	-0.3061438430014165	-0.02789431586141317	0.7808764925442166	1.102066066560504	-0.2796250588597747	0.008664617523227443	-0.3194833426005305	0.7652852610147945	0.7652852610150817	-0.1349868666879143	0.1265081179237797	0.1576517867830102	0.008972700561815782	0.4286264581806299	0.1691532056995822	0.5239581390349577	-2.215993132832736	-0.0211158882242969	-0.5485672475828367	0.6379003902155942	-2.316903501536867	-2.316903501536877	-0.1120646033901948	-0.1391230987056318	-0.6390326236660198	-0.1514178226787858	-0.168718304051281	0.06855207790310881	-0.02231756787153298	-0.2508651657568192	0.1150733044092248	-0.006304358666755465	0.1733201683738914	-1.094660460565806	3.732652547530023	-1.914730612717162	-3.434371442623068	-585.6596745579297	-16.82635518071764	-22.91388508229665	0.5520302418292911	0.605947898306391	-0.7728733500705077	-0.8200049045950789	0.3634468014284675	-0.103041759986897	1.754153789604947	-0.6153258410537975	-0.6153258410142546	-0.1163117596470621	-0.1673274427738266	-0.3628993938508448	0.4047863090672431	6.38882241907897e-07	-9.404968833880895e-07	-6.274923312525652e-06	-8.52514016166967e-07	1.125208561142618e-06	4.675196215272443e-07	6.154773406936677e-07
1.56	-0.3018309413813164	-0.02617275582746762	0.7860763267515606	1.079869020954917	-0.2798169125947409	0.003171812278329966	-0.3130173851885257	0.7420898587267953	0.7420898587269231	-0.1361097757670527	0.1251100225606301	0.1512450593576165	0.007480237889022678	0.4338837020234144	0.1751368794094597	0.5158981810900156	-2.223089588360251	-0.01725462088527146	-0.5498822625869635	0.6551884745137143	-2.321809134579741	-2.321809134579489	-0.112547546636392	-0.140510073220829	-0.6421795202593962	-0.147063822384664	-0.1622478159536309	0.06832762677159913	-0.0222435444876572	-0.2475905522131299	0.1170780442541998	-0.006757631711098676	0.1678134209469812	-0.2063184192794371	3.61637619438776	-1.716184160265382	-3.818575610205375	-581.1195311316683	-16.88636729015441	-24.26411056486756	0.494122915091239	0.5901252123031814	-0.8395510674049919	-0.586948500813945	0.4292899858496904	-0.2232606364472987	1.708903012595716	-0.3511320477457366	-0.3511320477457374	0.0977070945568957	-0.07960381914149012	-0.2580272929925286	0.4915884196071674	6.792642909114959e-07	-7.499738123845667e-07	-6.407490651165542e-06	-8.555276284330593e-07	1.20295533555797e-06	7.042563829962795e-07	6.423897246950522e-07
